<svg width="2200" height="720" viewBox="0 0 2200 720" fill="none" xmlns="http://www.w3.org/2000/svg">
  <rect width="2200" height="720" fill="#0B0B0A"/>
  <g transform="translate(120 110) scale(0.32)">
    <rect width="1600" height="1600" rx="320" fill="#0B0B0A"/>
    <path d="M430 515C430 471.922 464.922 437 508 437H1092C1135.08 437 1170 471.922 1170 515V870C1170 1087.05 994.046 1263 777 1263H748C572.373 1263 430 1120.63 430 945V515Z" stroke="#FEEE05" stroke-width="58" stroke-linejoin="round"/>
    <path d="M586 596V910C586 1019.35 674.648 1108 784 1108H816C925.352 1108 1019 1019.35 1019 910V596" stroke="#F7F4EA" stroke-width="58" stroke-linecap="round"/>
    <path d="M430 437L800 746L1170 437" stroke="#FEEE05" stroke-width="58" stroke-linecap="round" stroke-linejoin="round"/>
    <circle cx="800" cy="824" r="36" fill="#FEEE05"/>
    <path d="M800 860V970" stroke="#FEEE05" stroke-width="42" stroke-linecap="round"/>
  </g>
  <text x="720" y="392" fill="#FEEE05" font-family="Arial Black, Helvetica, Arial, sans-serif" font-size="190" font-weight="900" letter-spacing="-8">UNDDR</text>
  <text x="728" y="488" fill="#F7F4EA" opacity="0.74" font-family="Inter, Helvetica, Arial, sans-serif" font-size="44" font-weight="500" letter-spacing="8">INVITE-ONLY. ENCRYPTED. VOUCHED.</text>
</svg>
